<svg xmlns="http://www.w3.org/2000/svg" width="1260" height="1000" viewBox="0 0 1260 1000">
<rect width="1260" height="1000" fill="#173a67"/>
<circle cx="1230" cy="80" r="460" fill="#244d79"/>
<circle cx="1190" cy="120" r="360" fill="none" stroke="#e8ad35" stroke-width="3" opacity=".5"/>
<g transform="translate(726 308) scale(.87) rotate(8 256 256)"><g font-family="Arial,sans-serif" font-weight="700" text-anchor="middle">
  <rect x="88" y="88" width="152" height="152" rx="26" fill="#fff8e8"/>
  <text x="164" y="198" font-size="104" fill="#173a67">S</text>
  <rect x="264" y="88" width="152" height="152" rx="26" fill="#fff8e8"/>
  <text x="340" y="198" font-size="104" fill="#173a67">W</text>
  <rect x="88" y="264" width="152" height="152" rx="26" fill="#28734f"/>
  <text x="164" y="374" font-size="104" fill="#ffffff">G</text>
  <rect x="264" y="264" width="152" height="152" rx="26" fill="#e8ad35"/>
  <path d="M339 382V310" stroke="#173a67" stroke-width="12" stroke-linecap="round"/>
  <path d="M339 352C297 354 290 326 299 313C321 313 340 330 339 352Z" fill="#173a67"/>
  <path d="M339 333C374 335 387 311 377 298C354 300 340 312 339 333Z" fill="#173a67"/>
</g></g>
<g font-family="Arial,sans-serif">
<text x="82" y="125" font-size="26" letter-spacing="5" fill="#e8ad35">THREE WORD GAMES</text>
<text x="75" y="316" font-size="156" font-weight="700" fill="#fff8e8">Sikhi</text>
<text x="75" y="475" font-size="140" font-weight="700" fill="#fff8e8">Word</text>
<text x="75" y="634" font-size="140" font-weight="700" fill="#fff8e8">Games</text>
<text x="82" y="735" font-size="33" fill="#f7e4bc">Guess words. Find words. Learn meanings.</text>
<path d="M82 790H1178" stroke="#527393" stroke-width="2"/>
<text x="82" y="856" font-size="28" fill="#fff8e8">English · Romanized Punjabi · Gurmukhi</text>
<text x="82" y="925" font-size="23" letter-spacing="2" fill="#e8ad35">BUJHO  /  KHOJ  /  WORD QUEST</text>
</g></svg>